<svg id="visual" viewBox="0 0 900 600" width="900" height="600" xmlns="http://www.w3.org/2000/svg" xmlns:xlink="http://www.w3.org/1999/xlink" version="1.1"><g transform="translate(447.2352625449555 295.4029445948658)"><path d="M132.5 -208.2C175.4 -204.8 216.3 -176.7 229.4 -137.8C242.5 -99 227.7 -49.5 215 -7.3C202.3 34.8 191.7 69.7 178.7 108.8C165.8 147.9 150.7 191.3 120.5 204.5C90.3 217.8 45.2 200.9 -0.7 202.1C-46.5 203.2 -93 222.4 -136.3 216.7C-179.6 211.1 -219.7 180.5 -227.5 140.3C-235.2 100 -210.6 50 -202.1 4.9C-193.6 -40.2 -201.1 -80.3 -182.6 -102C-164.1 -123.6 -119.6 -126.8 -84.8 -134.9C-50 -142.9 -25 -156 9.9 -173.1C44.8 -190.3 89.7 -211.6 132.5 -208.2" fill="#C5CAF7"></path></g></svg>