<svg id="visual" viewBox="0 0 900 600" width="900" height="600" xmlns="http://www.w3.org/2000/svg"
    xmlns:xlink="http://www.w3.org/1999/xlink" version="1.1">
    <g transform="translate(420.054032206187 269.3608261217504)">
        <path
            d="M107 -196.3C128.6 -172.8 129.3 -123.9 143.3 -87C157.3 -50 184.6 -25 203.7 11C222.7 47 233.5 94 219.5 131C205.5 167.9 166.7 194.8 126 221.3C85.3 247.8 42.7 273.9 -3.2 279.4C-49 284.9 -98 269.7 -125.7 235.7C-153.4 201.7 -159.9 148.9 -163.2 106.4C-166.5 64 -166.8 32 -164.4 1.3C-162.1 -29.3 -157.3 -58.7 -151.2 -96.3C-145.1 -134 -137.8 -180 -112.4 -201.4C-87 -222.7 -43.5 -219.3 -0.4 -218.6C42.7 -217.9 85.3 -219.8 107 -196.3"
            fill="#F59300"></path>
    </g>
</svg>