<svg id="visual" viewBox="0 0 900 600" width="900" height="600" xmlns="http://www.w3.org/2000/svg" xmlns:xlink="http://www.w3.org/1999/xlink" version="1.1"><g transform="translate(437.5514135436274 331.863752823123)"><path d="M129 -220.5C172.3 -198.4 216 -174.2 228.5 -137.1C240.9 -100 221.9 -50 216 -3.4C210.1 43.2 217.2 86.3 195.9 108C174.5 129.6 124.8 129.8 87.4 145.5C50 161.3 25 192.6 -1.5 195.2C-28 197.8 -56 171.7 -85.4 151.3C-114.9 131 -145.8 116.5 -161.4 92.2C-177.1 68 -177.6 34 -187.1 -5.5C-196.6 -45 -215.2 -90 -204.5 -122.8C-193.7 -155.5 -153.6 -176.1 -114.6 -200.7C-75.7 -225.4 -37.8 -254.2 2.5 -258.5C42.8 -262.9 85.7 -242.7 129 -220.5" fill="#C5CAF7"></path></g></svg>