<svg id="visual" viewBox="0 0 900 600" width="900" height="600" xmlns="http://www.w3.org/2000/svg" xmlns:xlink="http://www.w3.org/1999/xlink" version="1.1"><g transform="translate(433.89944079315995 291.7559986748029)"><path d="M95.7 -152.1C129.8 -146.1 167.1 -132.1 197.3 -105.4C227.6 -78.7 250.8 -39.3 247.3 -2C243.9 35.3 213.7 70.7 193.1 114C172.4 157.3 161.2 208.5 130.6 217.7C100 226.9 50 193.9 1.4 191.5C-47.2 189 -94.3 217.1 -136 214.3C-177.8 211.6 -214 178 -215.4 137.2C-216.9 96.3 -183.4 48.2 -164.2 11.1C-145 -26 -140.1 -52 -138.3 -92.3C-136.6 -132.5 -138 -187.1 -115.5 -199.7C-93 -212.4 -46.5 -183.2 -7.8 -169.6C30.8 -156.1 61.7 -158.1 95.7 -152.1" fill="#F07594"></path></g></svg>