<svg id="visual" viewBox="0 0 900 600" width="900" height="600" xmlns="http://www.w3.org/2000/svg" xmlns:xlink="http://www.w3.org/1999/xlink" version="1.1"><g transform="translate(427.58378539487813 274.2794456299383)"><path d="M117.2 -204.2C141.5 -189.1 143.5 -136.5 170.2 -96.3C197 -56 248.5 -28 245.9 -1.5C243.3 25 186.6 50 158.9 88.5C131.1 127.1 132.3 179.2 110.7 211.8C89 244.5 44.5 257.7 -1.5 260.3C-47.5 262.9 -95 254.9 -123.7 226.3C-152.4 197.7 -162.4 148.6 -165.8 107.5C-169.2 66.3 -166.1 33.2 -176.2 -5.8C-186.3 -44.8 -209.6 -89.7 -198 -116.5C-186.3 -143.4 -139.7 -152.2 -100.8 -159C-62 -165.7 -31 -170.4 7.7 -183.8C46.5 -197.2 93 -219.4 117.2 -204.2" fill="#F59300"></path></g></svg>