<svg id="visual" viewBox="0 0 900 600" width="900" height="600" xmlns="http://www.w3.org/2000/svg" xmlns:xlink="http://www.w3.org/1999/xlink" version="1.1"><g transform="translate(448.3092551324261 298.2019385431797)"><path d="M88.7 -154.7C114.1 -139 133.3 -113.5 167.4 -86.1C201.6 -58.7 250.8 -29.3 257.3 3.7C263.8 36.8 227.6 73.7 190.1 95.3C152.6 117 113.8 123.4 81.9 141.5C50 159.6 25 189.3 -1.2 191.3C-27.3 193.3 -54.7 167.7 -94.8 154.4C-134.9 141 -187.8 140 -220 116.3C-252.2 92.7 -263.6 46.3 -247.3 9.4C-231 -27.5 -186.9 -55 -160.3 -88.2C-133.6 -121.4 -124.3 -160.3 -100.5 -176.9C-76.7 -193.5 -38.3 -187.7 -3.3 -182C31.7 -176.2 63.3 -170.4 88.7 -154.7" fill="#F07594"></path></g></svg>